<?xml version="1.0" encoding="utf-8"?>
<!-- Generator: Adobe Illustrator 15.0.0, SVG Export Plug-In . SVG Version: 6.00 Build 0)  -->
<!DOCTYPE svg PUBLIC "-//W3C//DTD SVG 1.1//EN" "http://www.w3.org/Graphics/SVG/1.1/DTD/svg11.dtd">
<svg version="1.1" id="Layer_1" xmlns="http://www.w3.org/2000/svg" xmlns:xlink="http://www.w3.org/1999/xlink" x="0px" y="0px"
	 width="600px" height="600px" viewBox="0 0 600 600" enable-background="new 0 0 600 600" xml:space="preserve">
<path opacity="0.07" d="M35.251,738.812l121.059-52.56c-40.326-46.121-71.879-103.562-90.813-170.389
	C-2.607,275.488,117.851,3.574,334.02-90.282l728.076-316.106l76.717-173.187l-840.08,364.738
	C20.797-94.165-134.079,255.441-46.514,564.499C-27.962,629.981,0.041,688.437,35.251,738.812z"/>
<path opacity="0.07" d="M239.434,667.266l142.824-62.009c-59.469-25.446-107.771-79.444-128.858-153.868
	c-38.979-137.582,29.719-292.654,153.443-346.371l560.055-243.158l76.721-173.187L371.552-19.537
	C186.261,60.911,83.011,293.98,141.387,500.019C160.659,568.03,195.176,624.718,239.434,667.266z"/>
</svg>
